<svg width="121" height="38" viewBox="0 0 121 38" fill="none" xmlns="http://www.w3.org/2000/svg">
<path fill-rule="evenodd" clip-rule="evenodd" d="M57.6653 3.96844C56.8867 4.60841 56.3628 5.50328 56.1878 6.49252C55.8843 8.56038 57.3149 10.1555 59.3969 10.1555C61.5214 10.1555 63.2999 8.73337 63.6034 6.74999C63.9494 4.63787 62.5189 3.00048 60.4369 3.00048C59.4267 2.9853 58.4441 3.32847 57.6653 3.96844ZM39.6695 21.3055C39.7198 20.3394 39.7049 19.371 39.625 18.4069H23.7376L21.0466 23.9084H32.8771C31.9767 27.0846 28.6017 29.0962 24.5551 29.0962C18.4344 29.0962 14.3877 25.0269 14.3877 19.2578C14.3877 13.6214 18.5275 9.50786 24.0594 9.50786C28.2436 9.50786 30.7182 11.6501 31.9807 14.1585H38.8601C37.1949 7.80811 31.8431 3.51347 24.0594 3.51347C14.7924 3.51347 8 10.2219 8 19.2578C8 28.3801 14.7034 35.0001 24.5551 34.984C33.5995 34.984 39.3092 28.5953 39.6695 21.3055ZM45.607 4.00624L40.7488 34.5072H46.9586L51.8146 4.00624H45.607ZM52.396 34.5072L55.7244 13.4866H61.9321L58.6036 34.5072H52.396ZM89.6395 4.00624H83.4318L81.54 15.7677C80.417 14.1142 78.3936 12.9958 75.4699 12.9958C70.5209 12.9958 65.2601 16.3048 64.1777 23.1038C62.8726 31.331 68.2708 35 72.4552 35C75.2453 35 77.5399 33.8796 79.1585 31.868L80.498 34.5072H87.3895L85.8397 28.897L89.6395 4.00624ZM76.0547 18.3626C78.4382 18.3626 81.0018 20.5089 80.417 24.2664C79.7878 28.2916 76.7285 29.6333 74.5675 29.6333C71.7349 29.6333 69.667 27.2174 70.2052 23.7736C70.701 20.5089 73.0845 18.3626 76.0547 18.3626ZM111.953 26.0105H96.0723C96.7481 28.6938 98.6379 30.0335 101.246 30.0335C103.632 30.0335 104.888 29.4522 105.746 28.1548H111.369C110.019 33.0287 105.566 34.994 101.382 34.994C94.6782 34.994 90.3159 30.2971 90.3159 23.9909C90.3159 17.731 94.8138 12.9898 101.201 12.9898C107.589 12.9898 112 17.737 112 23.9969C112 24.8479 112 25.1596 111.953 26.0105ZM96.0278 21.8948H106.335C105.93 19.6138 103.769 18.0045 101.206 18.0045C98.5023 18.0045 96.6226 19.5695 96.0278 21.8948Z" fill="black"/>
</svg>
