<svg width="121" height="34" viewBox="0 0 121 34" fill="none" xmlns="http://www.w3.org/2000/svg">
<path fill-rule="evenodd" clip-rule="evenodd" d="M110.778 5.29022V6.22511H111.198C111.432 6.22511 111.618 6.22511 111.711 6.1324C111.77 6.10115 111.819 6.05388 111.852 5.99606C111.885 5.93824 111.901 5.87225 111.898 5.80575C111.898 5.61947 111.851 5.47997 111.711 5.43232C111.548 5.31865 111.348 5.269 111.151 5.29283L110.778 5.29022ZM110.124 4.87174H111.292C111.62 4.85214 111.946 4.9335 112.226 5.10481C112.333 5.16347 112.421 5.25202 112.479 5.35969C112.537 5.46736 112.562 5.58952 112.552 5.71131C112.562 5.90758 112.513 6.10239 112.412 6.27103C112.269 6.40836 112.092 6.50499 111.899 6.55089L112.553 7.90339H111.853L111.245 6.64446H110.778V7.90339H110.124V4.87087V4.87174ZM111.245 4.26523C111.521 4.25469 111.796 4.31906 112.038 4.45152C112.313 4.56182 112.566 4.71962 112.785 4.91766C112.973 5.12816 113.13 5.36345 113.252 5.61687C113.348 5.90223 113.395 6.2015 113.392 6.50237C113.395 6.77273 113.348 7.04134 113.252 7.29429C113.136 7.56283 112.961 7.80181 112.739 7.9935C112.545 8.20054 112.305 8.36005 112.039 8.45965C111.494 8.64614 110.903 8.64614 110.358 8.45965C110.103 8.32033 109.867 8.14817 109.656 7.94758C109.464 7.74106 109.306 7.50496 109.189 7.24837C109.094 6.99538 109.046 6.7268 109.05 6.45645C109.044 6.16576 109.108 5.87793 109.236 5.61687C109.344 5.35506 109.503 5.11723 109.703 4.91718C109.904 4.71713 110.142 4.55884 110.404 4.45152C110.662 4.3139 110.953 4.24947 111.245 4.26523ZM111.198 3.65873C111.583 3.66408 111.963 3.7432 112.319 3.8918C112.983 4.19608 113.507 4.74126 113.785 5.41694C114.062 6.09261 114.072 6.84826 113.812 7.53083C113.653 7.85377 113.449 8.15204 113.205 8.41632C112.935 8.67642 112.618 8.88233 112.271 9.02282C111.942 9.17641 111.583 9.25603 111.22 9.25603C110.857 9.25603 110.498 9.17641 110.169 9.02282C109.825 8.87627 109.509 8.67104 109.235 8.41632C108.99 8.13537 108.786 7.82157 108.628 7.48404C108.494 7.15919 108.431 6.80998 108.441 6.45904C108.431 6.09263 108.494 5.72787 108.628 5.3864C108.791 5.04068 109.012 4.72537 109.281 4.45412C109.525 4.18547 109.829 3.97774 110.168 3.84761C110.5 3.7363 110.846 3.67327 111.196 3.66046L111.198 3.65873ZM98.4515 9.39193C98.4515 7.71364 97.8441 7.20158 97.2844 6.92172C96.7715 6.68865 96.3038 6.68865 96.3038 6.26843C96.3038 5.70872 98.1261 5.38293 98.4507 5.28936C100.837 4.92661 103.183 4.3335 105.455 3.51837C107.089 2.86594 107.278 3.37887 107.278 5.14987V28.8304C107.278 29.8563 108.677 29.3425 108.677 30.3215C108.677 30.8336 107.977 30.8336 107.417 30.8336H98.0307C97.4701 30.8336 96.7707 30.8336 96.7707 30.3215C96.7707 29.3425 98.4507 29.8095 98.4507 28.7836V9.39279L98.4515 9.39193ZM25.0121 3.61194C25.3852 2.82002 25.7593 2.77237 26.1793 3.61194C30.1476 11.117 35.1433 20.6261 39.109 28.1321C39.3781 28.644 39.7908 29.0665 40.2967 29.348C40.8025 29.6294 41.3795 29.7576 41.9571 29.7168C42.8439 29.6232 42.8439 30.6023 42.0039 30.6023H26.2252C25.6647 30.6023 25.3844 30.3224 25.4312 30.0425C25.4312 29.7627 25.7575 29.5305 26.3181 29.5764C27.9061 29.7159 29.2598 29.157 28.373 27.5247L26.1784 23.2791H18.2877C17.9606 23.9784 17.6335 24.6308 17.3072 25.2832C17.0121 25.7415 16.8921 26.2906 16.9692 26.8299C17.0464 27.3693 17.3154 27.8629 17.7272 28.2204C18.3783 28.7913 19.1418 29.2198 19.9686 29.4785C20.5761 29.6648 21.0889 29.6648 21.0889 30.1318C21.0889 30.4108 20.6698 30.7383 19.874 30.5503C19.4063 30.4567 18.8935 30.4108 18.4266 30.364C17.188 30.2251 15.9407 30.1784 14.6952 30.2245C13.2477 30.2704 11.5712 30.364 10.0266 30.5503C9.69942 30.5971 9 30.7366 9 30.1777C9 29.9438 9.27942 29.7575 9.60744 29.7107C10.2515 29.6132 10.8704 29.3916 11.4298 29.0583C12.7254 28.3617 13.7944 27.3094 14.5103 26.0257L25.0121 3.61194ZM22.1641 15.6866L19.4089 21.1867H25.0564L22.1641 15.6866ZM63.8093 15.6398L73.3331 30.8319C73.9865 31.9045 74.3145 31.9045 74.8742 30.8319L82.6243 16.475C83.5111 14.8435 83.978 14.6555 85.3777 14.2838C85.7509 14.1902 85.9852 13.958 85.9852 13.7718C85.9852 13.2597 85.5174 13.2597 84.6765 13.2597H78.8425C78.0494 13.2597 77.4888 13.2597 77.4888 13.7718C77.4888 14.0975 77.8151 14.1911 78.282 14.2838C79.0102 14.3603 79.6883 14.6903 80.1971 15.2161C80.3795 15.5418 80.4633 15.9133 80.4385 16.2856C80.4137 16.6579 80.2813 17.015 80.0574 17.3137C79.2157 18.8985 78.3288 20.5308 77.4888 22.1155L73.478 15.7334C73.0102 15.0342 73.0562 14.7084 73.4311 14.5204C73.8502 14.3341 75.1111 14.2873 75.1111 13.7744C75.1111 13.2614 74.5505 13.2623 73.7097 13.2623H62.1744V5.57095C62.1744 3.75144 61.9878 3.19432 60.4015 3.84588C57.964 4.75736 55.4479 5.44385 52.8849 5.89673C52.5109 5.94352 50.5975 6.36287 50.5975 6.8758C50.5975 7.29516 51.0652 7.34194 51.578 7.57501C52.1541 7.60499 52.697 7.85321 53.0961 8.26906C53.4952 8.68492 53.7204 9.2371 53.7258 9.81302V12.8455H51.4852C46.3957 12.8455 39.7191 15.3157 39.7191 21.9821C39.7191 27.8089 43.7811 31.4444 48.31 31.4912C50.4729 31.6248 52.6019 30.9052 54.2386 29.4872L54.4721 29.767C54.5658 31.4921 55.0795 31.3985 56.2944 31.1654C58.069 30.8388 60.9161 29.9065 62.7376 29.9524C63.2981 29.9524 63.9976 30.0919 63.9976 29.5331C63.9976 28.554 62.1753 29.0669 62.1753 27.6217V14.7075C62.5085 14.6902 62.8396 14.7689 63.1293 14.9342C63.419 15.0995 63.655 15.3444 63.8093 15.6398ZM51.204 14.0542C51.701 14.0339 52.1947 14.1436 52.6361 14.3725C53.0775 14.6014 53.4513 14.9415 53.7206 15.3591C54.0419 15.9919 54.1716 16.7046 54.0937 17.4099V25.8473C54.2261 26.6104 54.0589 27.3952 53.6268 28.0385C53.4511 28.2568 53.2315 28.4359 52.9822 28.5644C52.7329 28.6929 52.4594 28.7678 52.1794 28.7845C49.938 28.7845 47.8839 26.0803 47.8839 22.6778V18.577C47.8839 15.5939 49.2385 14.0551 51.1997 14.0551L51.204 14.0542ZM90.1878 3.51923C92.8501 3.51923 95.0473 5.33875 95.0473 7.6218C95.0473 9.8598 92.8536 11.7244 90.1878 11.7244C87.522 11.7244 85.3282 9.8598 85.3282 7.6218C85.3282 5.33788 87.528 3.51923 90.1878 3.51923ZM85.9869 18.7633C85.9869 17.1318 85.3794 16.6189 84.772 16.3373C84.3051 16.1042 83.8383 16.1042 83.8383 15.6848C83.8383 15.1251 85.612 14.7994 85.9869 14.7058C88.1589 14.3381 90.2864 13.7445 92.3346 12.9348C93.9695 12.2815 94.1101 12.7953 94.1101 14.5663V28.8304C94.1101 29.8554 95.5575 29.3425 95.5575 30.3215C95.5575 30.8336 94.8572 30.8336 94.2975 30.8336H85.5669C84.9594 30.8336 84.26 30.8336 84.26 30.3215C84.26 29.3425 85.9886 29.8095 85.9886 28.7836L85.9869 18.7633Z" fill="black"/>
</svg>
