<svg width="121" height="40" viewBox="0 0 121 40" fill="none" xmlns="http://www.w3.org/2000/svg">
<path fill-rule="evenodd" clip-rule="evenodd" d="M112.872 27.1943C112.449 27.1942 112.039 27.3394 111.712 27.6051C111.384 27.8708 111.16 28.2406 111.078 28.6515C110.995 29.0625 111.059 29.4891 111.258 29.8588C111.457 30.2284 111.779 30.5183 112.17 30.679C112.561 30.8397 112.996 30.8613 113.401 30.74C113.806 30.6188 114.156 30.3623 114.391 30.0142C114.626 29.666 114.733 29.2478 114.692 28.8308C114.651 28.4137 114.465 28.0236 114.167 27.7269C113.997 27.5582 113.795 27.4243 113.573 27.3329C113.351 27.2415 113.112 27.1944 112.872 27.1943ZM112.872 30.6622C112.546 30.6632 112.227 30.5684 111.956 30.3898C111.684 30.2112 111.473 29.9568 111.347 29.6588C111.222 29.3609 111.189 29.0328 111.252 28.7162C111.316 28.3996 111.472 28.1088 111.703 27.8805C111.933 27.6522 112.227 27.4969 112.546 27.434C112.866 27.3712 113.197 27.4038 113.498 27.5277C113.799 27.6516 114.056 27.8611 114.236 28.1298C114.417 28.3985 114.513 28.7142 114.512 29.037C114.511 29.4676 114.338 29.8805 114.031 30.1851C113.723 30.4897 113.307 30.6612 112.872 30.6622ZM64.9274 25.2078L68.9745 12.168H64.5762L64.0116 12.8275C63.7797 12.5503 63.4906 12.3255 63.1636 12.1682C62.8367 12.011 62.4795 11.9249 62.1162 11.9159C58.7762 12.1059 55.9193 14.3826 53.9612 17.135L55.1038 12.3721C54.1306 12.3215 52.082 12.5248 49.9805 15.1122C49.7234 14.0585 49.2719 13.0609 48.6488 12.1698H44.0811C44.5993 12.6953 44.9562 13.3557 45.1104 14.0743C45.2646 14.7928 45.2097 15.5399 44.9521 16.2288L40.751 29.8269H45.1565L48.0502 20.4653C48.2742 19.8493 51.3471 13.8784 53.5167 17.7794C52.1821 19.7368 51.3675 21.9959 51.1482 24.3477C51.0245 27.9026 52.3257 30.1829 54.7328 30.1829C57.1399 30.1829 59.2924 28.0526 60.2656 26.7327C60.1635 28.0517 60.3167 30.4873 63.0321 30.4873C64.1193 30.428 65.1496 29.9868 65.938 29.2429C66.7264 28.499 67.2212 27.501 67.3336 26.4283C65.5494 28.0997 64.4238 26.7292 64.9346 25.2069L64.9274 25.2078ZM63.1853 16.6868L61.8097 20.9961C59.9135 27.1357 57.8138 27.0851 57.0968 26.7807C56.3799 26.4762 55.7472 24.6291 57.5073 20.3899C59.8633 14.7092 61.7846 13.7932 62.938 14.0976C63.6029 14.4527 63.5008 15.7717 63.1934 16.685L63.1853 16.6868ZM112.512 14.2521C111.538 12.223 107.748 11.6647 105.033 12.6792C103.151 13.3831 97.1469 17.7031 96.9892 24.654C96.8575 30.64 101.753 30.5397 102.778 30.5397C104.455 30.5861 106.097 30.0553 107.423 29.0377C108.75 28.02 109.679 26.5784 110.052 24.9584C108.281 26.3236 102.296 28.579 102.425 24.0655C104.866 23.6732 110.691 22.5175 112.255 18.6662C112.673 17.7493 113.175 15.6217 112.524 14.2477L112.512 14.2521ZM106.109 20.95C105.147 21.8283 103.923 22.3723 102.621 22.4997C103.506 17.4253 105.908 15.019 106.775 14.3027C107.696 13.542 108.568 13.897 108.516 15.1654C108.33 17.2894 107.493 19.3062 106.117 20.9455L106.109 20.95ZM20.2281 9.9108C19.409 6.25741 21.083 3.66915 24.0699 3.66915C27.1948 3.66915 28.7299 6.25652 26.1696 10.2658H26.9887C27.8367 9.074 28.3171 7.6639 28.3715 6.20681C28.4226 5.03961 27.245 1.99512 23.146 1.99512C18.6894 1.99512 12.3366 5.29347 14.3861 13.8172L16.4347 21.7834C16.9473 24.9291 17.2547 28.8843 13.7713 29.0893C11.0049 29.1914 7.52152 24.4214 14.7956 20.5683C13.9765 18.8437 5.93354 19.6044 5.98462 25.4395C6.03211 30.8193 11.8849 30.9196 13.1055 30.9196C14.326 30.9196 24.837 29.195 22.2749 18.2348L20.2281 9.9108ZM37.7766 25.2069L41.8228 12.1671H37.4173L36.8536 12.8266C36.6216 12.5496 36.3324 12.325 36.0055 12.1679C35.6786 12.0108 35.3215 11.9249 34.9582 11.9159C28.7084 12.2709 24.1488 19.9328 23.9955 24.3424C23.8719 27.8928 25.174 30.1775 27.5802 30.1775C29.9863 30.1775 32.1398 28.0473 33.113 26.7274C33.0109 28.0464 33.1641 30.482 35.8795 30.482C36.9667 30.4225 37.9969 29.9813 38.7852 29.2374C39.5736 28.4935 40.0684 27.4956 40.181 26.423C38.3887 28.0979 37.2613 26.7283 37.7739 25.2061L37.7766 25.2069ZM36.0345 16.6859L34.6508 20.9961C32.7555 27.1357 30.6549 27.0851 29.938 26.7807C29.221 26.4762 28.5883 24.6291 30.3475 20.3899C32.7035 14.7092 34.6248 13.7932 35.7782 14.0976C36.444 14.4527 36.3419 15.769 36.0345 16.6824V16.6859ZM97.6407 14.2512C96.6666 12.2221 92.8767 11.6638 90.1614 12.6784C88.2795 13.3822 82.2752 17.7022 82.1175 24.6531C81.9858 30.6391 86.8815 30.5388 87.9067 30.5388C89.5838 30.5853 91.2253 30.0545 92.5516 29.0368C93.8779 28.0191 94.8071 26.5775 95.1808 24.9575C93.4082 26.3227 87.4245 28.5781 87.5536 24.0646C89.9947 23.6723 95.8188 22.5166 97.3835 18.6653C97.7931 17.7493 98.2985 15.6217 97.6407 14.2477V14.2512ZM91.2368 20.9455C90.2747 21.8238 89.0501 22.3678 87.748 22.4953C88.6334 17.4208 91.0351 15.0145 91.9017 14.2982C92.8248 13.5376 93.694 13.8926 93.6439 15.161C93.4569 17.2874 92.6169 19.3062 91.2368 20.9455Z" fill="black"/>
<path fill-rule="evenodd" clip-rule="evenodd" d="M80.0771 33.0958C77.8563 33.0958 73.5144 33.6076 71.4949 34.5274C73.918 32.8909 78.2599 29.6169 80.1778 24.1954C82.0958 18.7739 84.0146 12.3287 84.8217 9.87255C85.6288 7.41637 87.2359 5.455 89.7667 5.6778C92.0882 5.8827 91.7862 8.74691 91.8365 10.2815L92.6939 9.82155C92.7946 6.85534 92.0873 3.99023 87.0425 3.99023C81.9977 3.99023 79.1667 8.74691 78.0568 11.816C76.9468 14.8851 72.7065 28.0814 71.7969 29.9229C70.8874 31.7643 69.6777 34.0147 64.8307 37.9017C68.1099 37.1323 71.461 36.721 74.8266 36.6749H99.5604C101.582 36.6238 103.548 35.991 105.228 34.8502C106.909 33.7095 108.234 32.1079 109.049 30.2325C107.535 31.767 105.819 33.0958 100.973 33.0958H80.0771ZM113.066 29.4996C113.213 29.4957 113.352 29.4337 113.455 29.327C113.558 29.2202 113.615 29.077 113.616 28.9279C113.616 28.5369 113.403 28.3311 112.921 28.3311H112.12V30.492H112.303V29.4952H112.858L113.5 30.492H113.703L113.066 29.4996ZM112.756 29.3341H112.303V28.493H112.892C113.148 28.493 113.431 28.5905 113.431 28.9225C113.431 29.2992 113.078 29.3341 112.757 29.3341H112.756Z" fill="black"/>
</svg>
