<svg width="121" height="14" viewBox="0 0 121 14" fill="none" xmlns="http://www.w3.org/2000/svg">
<g clip-path="url(#clip0_160_230)">
<path fill-rule="evenodd" clip-rule="evenodd" d="M18.3289 1.062C17.6313 1.23905 16.9709 1.53945 16.379 1.949C16.379 1.949 12.359 4.849 10.879 13.299H13.0659C13.1816 12.2936 13.4613 11.3139 13.8939 10.399L20.16 10.458L20.8689 13.177H24.948C24.6043 11.5514 24.1496 9.95133 23.587 8.388C23.587 8.388 21.0469 1.058 18.3279 1.058L18.3289 1.062ZM5.80395 0.524994C5.80395 0.524994 0.36495 1.234 0.0099496 6.792C0.0099496 6.792 -0.463051 11.521 5.03495 13.353C6.16434 13.6004 7.34128 13.5148 8.42299 13.1066C9.50469 12.6983 10.4447 11.985 11.129 11.053L9.64795 9.033C8.99132 9.83287 8.13513 10.4452 7.16595 10.808C6.83733 10.9214 6.48844 10.964 6.14219 10.933C5.79594 10.902 5.46017 10.798 5.15695 10.628L5.09795 3.3C5.67213 3.12781 6.27394 3.06705 6.87095 3.12099C6.87095 3.12099 8.05295 2.944 9.70795 5.309L11.5989 3.833C11.0168 2.81478 10.1728 1.97088 9.15451 1.38885C8.13622 0.806826 6.98074 0.507863 5.80795 0.522995L5.80395 0.524994ZM108.529 6.967C108.47 10.692 111.189 13.647 114.085 13.647C116.922 13.647 119.585 10.692 119.585 7.027C119.585 3.304 116.985 0.287997 114.085 0.226997C111.246 0.226997 108.529 3.244 108.529 6.967ZM41.4459 0.826996C41.4459 0.826996 36.1849 0.885999 36.1249 7.211C36.1283 8.63784 36.6336 10.018 37.5523 11.1097C38.4711 12.2014 39.7446 12.935 41.1499 13.182C41.1499 13.182 44.6959 13.95 47.1179 10.107L45.2289 8.393C45.2289 8.393 43.8109 11.468 40.7969 10.523V7.62299H43.9289V5.49799H40.7349V3.489C40.7528 3.37235 40.8002 3.26222 40.8727 3.16909C40.9451 3.07596 41.0403 3.00295 41.1489 2.957C41.8703 2.85956 42.6046 2.96252 43.2713 3.25462C43.938 3.54671 44.5115 4.01667 44.9289 4.613L46.5839 3.49C46.064 2.608 45.306 1.89041 44.3969 1.41957C43.4878 0.948728 42.4643 0.743693 41.4439 0.827995L41.4459 0.826996ZM95.4069 0.885994C95.4069 0.885994 90.1449 0.944997 90.0859 7.27C90.092 8.7025 90.597 10.0881 91.5141 11.1886C92.4312 12.2891 93.703 13.0357 95.1109 13.3C95.1109 13.3 98.657 14.009 101.021 10.166L99.1899 8.51199C99.1899 8.51199 97.7709 11.587 94.7579 10.582L94.6989 7.682H97.8899L97.8309 5.555H94.6989V3.548C94.6989 3.548 94.6989 3.134 95.0529 3.075C95.7843 2.95735 96.5341 3.05043 97.2144 3.34335C97.8948 3.63626 98.4777 4.11689 98.895 4.729L100.549 3.548C100.01 2.68374 99.2484 1.9805 98.344 1.51211C97.4396 1.04371 96.4258 0.82744 95.409 0.885994H95.4069ZM25.4849 5.96899C25.3308 7.38197 25.6202 8.8079 26.3129 10.049C26.3129 10.049 25.7219 9.99 25.2489 9.042V13.18H29.7419L29.8599 7.919H33.2289V5.555H29.629L29.6879 3.605C30.4333 3.15722 31.3065 2.97006 32.1699 3.073C32.8961 3.23973 33.5618 3.6047 34.0929 4.12729C34.6239 4.64988 34.9996 5.30959 35.1779 6.033H35.8279V1.12199L29.6229 1.181C29.6229 1.181 25.8989 1.53299 25.4849 5.96899ZM82.229 2.71899H84.3579V13.18L88.0229 13.121L88.0819 2.778H89.9129C90.5039 2.778 90.5039 3.133 90.5039 3.133C90.9284 2.74756 91.2008 2.22291 91.2719 1.654L91.0939 1.063L81.2819 1.004L80.9289 1.533C80.6289 2.599 81.8149 3.071 81.8149 3.071C81.6949 2.719 82.229 2.71899 82.229 2.71899ZM54.2649 13.299L59.9399 13.358C59.9399 13.358 61.5399 13.299 61.9489 12.767C62.6226 12.3586 63.1715 11.7736 63.536 11.0753C63.9006 10.377 64.0669 9.59215 64.0169 8.806C63.994 8.21112 63.8259 7.63087 63.5273 7.11583C63.2287 6.60078 62.8088 6.16656 62.3039 5.851C62.6041 5.56457 62.8346 5.21324 62.978 4.82393C63.1213 4.43462 63.1737 4.01766 63.131 3.605C63.131 3.605 63.1309 1.239 60.9439 1.062L54.2639 1.003V13.303L54.2649 13.299ZM73.95 2.24599C73.5155 2.7891 73.2483 3.44679 73.1809 4.139C73.0794 4.99529 73.3022 5.85855 73.8055 6.55875C74.3087 7.25894 75.056 7.74529 75.8999 7.922C76.4654 8.14785 77.0182 8.40423 77.5559 8.68999C77.5559 8.68999 78.6789 9.33999 78.3829 10.344C78.2853 10.6719 78.0632 10.9485 77.7642 11.1146C77.4651 11.2808 77.1129 11.3233 76.7829 11.233C75.8022 11.1192 74.8873 10.6818 74.1829 9.99L73.1189 11.29C74.0552 12.2166 75.1859 12.9233 76.4289 13.359C77.2041 13.5485 78.0163 13.5219 78.7774 13.2821C79.5385 13.0423 80.2194 12.5986 80.7459 11.999C81.2628 11.3727 81.5924 10.6133 81.6968 9.808C81.8012 9.00272 81.6761 8.18434 81.3359 7.447C81.3359 7.447 80.5089 5.91 77.4959 4.547C77.4959 4.547 76.4889 4.37 76.4889 3.547C76.4889 3.547 76.6069 2.89499 77.6149 2.95399C78.3213 3.0731 78.9895 3.3575 79.5649 3.784L80.451 2.24599C79.5743 1.35977 78.3863 0.850956 77.1399 0.827995C76.5342 0.798069 75.9299 0.910791 75.3756 1.15708C74.8214 1.40337 74.3327 1.77635 73.9489 2.24599H73.95ZM64.3709 1.056L64.4289 9.98199L64.4879 10.514C64.7176 11.4213 65.2572 12.2197 66.0134 12.7711C66.7697 13.3224 67.6949 13.5919 68.6289 13.533C68.6289 13.533 72.3539 13.592 72.6499 10.105V1.115H70.4019L70.3419 10.333C70.3419 10.333 70.3419 11.101 69.3419 11.333C69.3419 11.333 68.0979 11.451 67.9209 10.333V1.055L64.3709 1.056ZM101.436 13.181H108.884L108.943 10.758L104.981 10.699V0.944H101.495L101.436 13.181ZM113.849 11.05C113.305 10.863 112.831 10.514 112.491 10.05C112.358 9.90211 112.275 9.7159 112.254 9.518V3.778C112.397 3.35035 112.664 2.97537 113.023 2.70154C113.381 2.42771 113.813 2.26763 114.263 2.242C116.627 2.183 117.398 5.433 117.398 5.433C118.106 9.749 115.445 10.933 115.445 10.933C114.947 11.1791 114.373 11.2214 113.845 11.051L113.849 11.05ZM19.1619 8.09399H14.7289C15.2054 6.89131 15.8415 5.75816 16.6199 4.725C17.0339 4.191 17.2699 4.547 17.2699 4.547C17.9189 5.021 19.1619 8.09399 19.1619 8.09399ZM59.7619 11.048H57.9289L57.8699 6.49599L60.0559 6.555C61.8299 6.733 61.6559 9.03799 61.6559 9.03799C61.6559 10.693 59.7609 11.049 59.7609 11.049L59.7619 11.048ZM46.5869 2.66C47.0938 2.55678 47.5757 2.35607 48.0059 2.069L49.6599 0.827995L47.9459 0L46.5869 1.533V2.656V2.66ZM59.9979 4.37H57.8709L57.812 2.656H59.9389C60.0648 2.64952 60.1907 2.66957 60.3083 2.71483C60.426 2.76009 60.5328 2.82956 60.6219 2.91875C60.711 3.00793 60.7804 3.11484 60.8255 3.23254C60.8706 3.35024 60.8906 3.47611 60.8839 3.602C60.8588 3.81751 60.754 4.01583 60.59 4.15794C60.426 4.30006 60.2148 4.3757 59.9979 4.37ZM118.754 1.59399C118.76 1.89043 118.88 2.17317 119.089 2.38291C119.299 2.59265 119.582 2.7131 119.878 2.71899C120.026 2.72115 120.174 2.69353 120.311 2.63776C120.449 2.582 120.574 2.49923 120.679 2.39435C120.784 2.28946 120.866 2.1646 120.922 2.02713C120.978 1.88966 121.006 1.74238 121.004 1.59399C121.011 1.44428 120.987 1.29473 120.933 1.15493C120.879 1.01514 120.796 0.888189 120.69 0.782249C120.584 0.67631 120.457 0.593719 120.317 0.539772C120.177 0.485825 120.028 0.461713 119.878 0.468994C119.73 0.467111 119.583 0.494937 119.445 0.550819C119.308 0.606702 119.183 0.689508 119.079 0.794365C118.974 0.899222 118.891 1.024 118.835 1.16134C118.78 1.29867 118.752 1.44578 118.754 1.59399ZM118.99 1.59399C118.988 1.477 119.009 1.36077 119.053 1.25224C119.097 1.14371 119.162 1.04511 119.245 0.962326C119.327 0.879538 119.426 0.814261 119.534 0.770393C119.643 0.726525 119.759 0.704965 119.876 0.707001C119.994 0.699852 120.113 0.717894 120.224 0.759941C120.335 0.801989 120.435 0.867084 120.519 0.95092C120.603 1.03476 120.668 1.13542 120.71 1.24628C120.752 1.35713 120.77 1.47565 120.763 1.59399C120.765 1.71107 120.744 1.82739 120.7 1.93599C120.656 2.04459 120.591 2.14323 120.508 2.22604C120.425 2.30884 120.327 2.37409 120.218 2.4179C120.109 2.46171 119.993 2.48317 119.876 2.481C119.643 2.47517 119.421 2.37995 119.256 2.21504C119.091 2.05013 118.996 1.82714 118.99 1.59399ZM119.643 1.12V1.948H119.761V1.59299H119.879L120.114 1.948H120.232L119.997 1.59299C120.114 1.53399 120.173 1.47499 120.173 1.35699C120.173 1.17899 119.997 1.12 119.878 1.12H119.643ZM119.761 1.473V1.23299H119.879C119.997 1.23299 120.057 1.233 120.057 1.351C120.057 1.469 119.939 1.46899 119.82 1.46899H119.761V1.473Z" fill="black"/>
</g>
<defs>
<clipPath id="clip0_160_230">
<rect width="121.005" height="13.647" fill="white"/>
</clipPath>
</defs>
</svg>
