<svg width="121" height="26" viewBox="0 0 121 26" fill="none" xmlns="http://www.w3.org/2000/svg">
<g clip-path="url(#clip0_160_233)">
<path d="M115.933 20.24C116.249 20.2763 116.568 20.1962 116.829 20.0146C117.001 19.7199 117.07 19.3769 117.027 19.0386V8.37836C117.059 8.00571 117 7.63075 116.855 7.28616C116.736 7.15512 116.587 7.05525 116.421 6.99537C116.255 6.93549 116.077 6.91743 115.902 6.9428H115.533V6.17355L119.821 5.84172V19.0448C119.821 19.7227 119.998 20.1042 120.367 20.1858C120.575 20.2293 120.787 20.2481 121 20.2417V21.0704H115.935V20.24H115.933ZM109.205 16.4026C109.841 15.9707 110.571 15.6955 111.334 15.5997V17.1177C111.372 17.7908 111.238 18.4624 110.946 19.0697C110.835 19.3261 110.654 19.5458 110.423 19.7029C110.192 19.86 109.921 19.9481 109.642 19.9569C109.483 19.9571 109.327 19.919 109.186 19.8459C109.045 19.7729 108.924 19.667 108.833 19.5373C108.589 19.1758 108.473 18.7435 108.501 18.3084C108.47 17.9569 108.518 17.6028 108.641 17.272C108.763 16.9411 108.958 16.6417 109.211 16.3955M107.384 12.3435C107.526 12.0605 107.759 11.834 108.046 11.7011C108.457 11.4682 108.922 11.3459 109.394 11.3462C110.686 11.3462 111.332 11.9377 111.332 13.1207V14.7506C109.903 14.9656 108.516 15.4002 107.219 16.0388C106.726 16.2806 106.311 16.6569 106.022 17.1244C105.733 17.5919 105.582 18.1315 105.587 18.6811C105.576 19.3169 105.794 19.9355 106.202 20.4236C106.5 20.7541 106.869 21.0123 107.282 21.1785C107.695 21.3447 108.141 21.4145 108.585 21.3827C109.195 21.3805 109.792 21.2018 110.303 20.8681C110.787 20.5786 111.184 20.1623 111.45 19.6641V20.1654C111.465 20.4663 111.465 20.7678 111.45 21.0686H115.158V20.24H115.016C114.421 20.24 114.124 19.8318 114.124 19.0111V14.0656C114.124 11.6789 112.775 10.485 110.077 10.4838C109.114 10.4506 108.16 10.6902 107.327 11.175C106.994 11.3469 106.715 11.6062 106.519 11.9249C106.323 12.2437 106.217 12.6098 106.213 12.9841C106.202 13.2129 106.242 13.4413 106.331 13.6524C106.42 13.8635 106.556 14.0517 106.728 14.2031C107.016 14.4497 107.383 14.5829 107.762 14.5776C108.164 14.5903 108.554 14.4432 108.847 14.1685C108.98 14.0571 109.088 13.9184 109.164 13.7617C109.24 13.605 109.281 13.4339 109.285 13.26C109.285 12.4331 108.841 12.0178 107.969 12.0178C107.821 12.0123 107.674 12.0376 107.536 12.0921C107.399 12.1466 107.274 12.2292 107.171 12.3346L107.387 12.4189C107.391 12.3951 107.391 12.3708 107.387 12.347M35.6177 14.692C37.0367 14.7603 38.4453 14.4174 39.6741 13.7045C40.2263 13.3648 40.6771 12.8829 40.9793 12.3093C41.2814 11.7357 41.4239 11.0914 41.3919 10.4439C41.4296 9.78112 41.2879 9.12046 40.9817 8.53148C40.6755 7.9425 40.2161 7.447 39.652 7.09718C38.4318 6.4094 37.0414 6.08205 35.6425 6.15315H30.0227V6.96675C30.442 6.9318 30.8641 6.97974 31.2648 7.10782C31.5372 7.26132 31.6756 7.6801 31.6756 8.36683V18.9694C31.7 19.1593 31.6821 19.3522 31.623 19.5343C31.564 19.7164 31.4653 19.8832 31.334 20.0226C31.011 20.1976 30.6429 20.2717 30.2773 20.2355H30.0236V21.0642H36.7072V20.24H36.0116C35.6282 20.2826 35.2418 20.1917 34.9176 19.9827C34.8025 19.8433 34.7173 19.6817 34.6673 19.508C34.6172 19.3343 34.6034 19.1522 34.6266 18.973V14.692H35.6177ZM38.3255 10.4554C38.3255 12.6499 37.4309 13.7471 35.6416 13.7471H34.6958V7.01999H35.6363C37.4232 7.01999 38.3178 8.16483 38.3202 10.4545M45.64 12.7693C46.0333 11.2433 46.8614 10.4802 48.1243 10.4802C48.5302 10.4596 48.9287 10.5951 49.2378 10.8591C49.3767 10.9862 49.4862 11.1421 49.5587 11.3158C49.6312 11.4896 49.6649 11.6771 49.6574 11.8652C49.6598 12.2226 49.5339 12.5689 49.3025 12.8412C49.1799 12.9916 49.0248 13.1123 48.8488 13.1942C48.6729 13.2761 48.4807 13.3171 48.2866 13.3141C48.1158 13.3228 47.945 13.2958 47.7852 13.2346C47.6253 13.1735 47.4801 13.0797 47.3586 12.9592C47.2532 12.8623 47.1714 12.7425 47.1197 12.6089C47.068 12.4754 47.0478 12.3317 47.0605 12.1891C47.0694 12.1167 47.083 12.045 47.1013 11.9744C46.6181 12.7181 46.3077 13.5606 46.1927 14.44C46.0194 15.2795 45.927 16.1337 45.9168 16.9909V19.0404C45.8849 19.3629 45.9414 19.688 46.0801 19.9809C46.2114 20.1583 46.5689 20.2382 47.1448 20.2382H47.4926V21.0669H41.8692V20.24H42.0795C42.3727 20.2652 42.666 20.1925 42.9135 20.0332C43.0821 19.901 43.1637 19.563 43.1637 19.0422V14.5678C43.2122 13.7081 43.1702 12.8457 43.0386 11.9948C42.982 11.8605 42.884 11.7478 42.7589 11.6731C42.6337 11.5984 42.488 11.5656 42.343 11.5795H42.0484V10.7535H45.5717L45.64 12.7693ZM57.3099 19.4237C57.2665 19.4494 57.2212 19.4867 57.1653 19.5186L57.3099 19.4379C57.1141 19.9506 56.7754 20.3965 56.334 20.7226C55.7943 21.1541 55.1227 21.3868 54.4317 21.3818C53.9635 21.4316 53.4903 21.368 53.0518 21.1966C52.6132 21.0253 52.2223 20.751 51.9119 20.397C51.466 19.6723 51.2607 18.8251 51.3255 17.9766V13.6566C51.3655 13.0861 51.3221 12.5128 51.1968 11.9549C51.0779 11.7375 50.7984 11.6239 50.3539 11.6239H50.2652V10.7606H54.1585V18.3386C54.1585 19.3441 54.5755 19.8469 55.4095 19.8469C56.0989 19.8469 56.5629 19.3705 56.8078 18.3989C56.9276 17.8754 56.9803 17.3387 56.9648 16.8019V13.6601C57.0236 13.0642 56.9716 12.4626 56.8113 11.8856C56.6792 11.7816 56.5277 11.705 56.3655 11.6603C56.2034 11.6157 56.034 11.6039 55.8673 11.6257H55.5727V10.7624H59.8235V18.4965C59.7736 18.9931 59.8259 19.4946 59.977 19.9702C60.0736 20.0712 60.1926 20.1479 60.3244 20.1942C60.4563 20.2404 60.5971 20.2549 60.7356 20.2364H61.0018V21.0642H57.2319L57.1689 19.4033L57.2319 19.4468L57.2505 19.492L57.3126 19.421L57.3099 19.4237ZM65.6705 10.5255C65.0052 10.5162 64.3484 10.6746 63.7605 10.9862C63.1726 11.2977 62.6727 11.7523 62.3069 12.308C61.5544 13.3648 61.159 14.6343 61.1783 15.9315C61.1218 17.198 61.4124 18.4558 62.0186 19.5692C62.3486 20.151 62.8347 20.6289 63.422 20.949C64.0093 21.2692 64.6744 21.4188 65.3422 21.381C66.0773 21.3934 66.7921 21.1394 67.3545 20.6658C67.7616 20.3395 68.0645 19.9013 68.2257 19.4051L68.1539 19.4618L68.0651 19.3811L68.137 21.0669H71.8333V20.2506H71.6479C71.4916 20.2726 71.3323 20.2535 71.1856 20.1953C71.039 20.1372 70.9099 20.0419 70.8112 19.9188C70.6821 19.6475 70.6279 19.3467 70.6541 19.0475V5.84084L66.3288 6.17178V6.9428H66.611C67.1566 6.9428 67.5071 7.09185 67.6685 7.38642C67.7978 7.76646 67.8552 8.1672 67.838 8.56823C67.8122 9.53712 67.8418 10.5067 67.9267 11.4722C67.6663 11.1308 67.3212 10.8636 66.9255 10.6969C66.5299 10.5302 66.0975 10.4699 65.6714 10.5219M67.8646 14.8118V16.9004C67.8731 17.3768 67.8303 17.8527 67.7369 18.32C67.4796 19.461 66.9383 20.0377 66.107 20.0377C64.9471 20.0377 64.3662 18.6669 64.3644 15.9253C64.34 15.0211 64.4071 14.1169 64.565 13.2263C64.8305 12.1024 65.3593 11.5405 66.1514 11.5405C67.2929 11.5405 67.8643 12.6303 67.8655 14.81M74.9874 15.6724H81.2603C81.3234 14.3695 80.9578 13.0818 80.2195 12.0063C79.8157 11.4939 79.2934 11.0873 78.6976 10.8215C78.1018 10.5556 77.4503 10.4385 76.7992 10.4802C76.1491 10.4649 75.5035 10.5909 74.907 10.8497C74.3104 11.1084 73.7772 11.4937 73.3443 11.9788C72.4024 13.0661 71.9095 14.471 71.9655 15.9084C71.889 17.3094 72.3182 18.6913 73.1748 19.8025C73.6268 20.3324 74.1955 20.7503 74.8362 21.0232C75.477 21.2962 76.1723 21.4168 76.8675 21.3756C77.4564 21.3854 78.0406 21.2685 78.5804 21.0327C79.1201 20.797 79.6029 20.4479 79.9959 20.0093C80.6855 19.3275 81.0967 18.4134 81.1494 17.4451H80.1051C80.0841 18.1505 79.8105 18.825 79.3341 19.3456C79.0935 19.6585 78.7846 19.9122 78.4309 20.0872C78.0771 20.2622 77.688 20.3539 77.2934 20.3553C76.163 20.3553 75.45 19.5479 75.1542 17.9331C75.0317 17.1881 74.9779 16.4335 74.9937 15.6786M76.7681 11.2726C77.8518 11.2726 78.3948 12.4529 78.3971 14.8136H74.9892C74.999 14.4454 75.015 14.1393 75.0336 13.8944C75.1773 12.1483 75.7555 11.2737 76.7681 11.2726ZM85.3407 12.1039C85.5911 11.6118 85.9829 11.2058 86.4657 10.9381C86.9858 10.6354 87.5782 10.4793 88.1799 10.4865C90.246 10.4865 91.2791 11.6103 91.2791 13.858V18.5515C91.2791 19.0715 91.2832 19.3849 91.2915 19.492C91.3287 19.9936 91.6455 20.2441 92.2417 20.2435H92.4582V21.0713H88.4461V13.488C88.472 13.1023 88.4076 12.7159 88.258 12.3594C88.1521 12.1867 87.999 12.0477 87.8169 11.9589C87.6347 11.8701 87.431 11.8352 87.2297 11.8581C86.9929 11.8593 86.761 11.9251 86.5589 12.0483C86.3567 12.1715 86.192 12.3474 86.0825 12.5573C85.7582 13.1973 85.61 13.912 85.653 14.6281V18.5116C85.6037 19.0001 85.647 19.4934 85.7808 19.9658C85.9087 20.0686 86.0557 20.1451 86.2133 20.1908C86.3709 20.2365 86.536 20.2505 86.6991 20.232H86.8712V21.0607H81.6445V20.24H81.9239C82.0313 20.2556 82.1409 20.2478 82.2449 20.217C82.349 20.1863 82.4452 20.1333 82.5269 20.0618C82.6085 19.9903 82.6737 19.9019 82.7178 19.8028C82.762 19.7036 82.7842 19.5961 82.7828 19.4876C82.8095 19.1496 82.819 18.8106 82.8112 18.4717V13.3123C82.8589 12.8173 82.7983 12.3177 82.6337 11.8484C82.5184 11.6709 82.2664 11.5822 81.8849 11.5822H81.6471V10.7562H85.3425V12.0977L85.3407 12.1039ZM96.3479 21.381C94.6337 21.381 93.7749 20.405 93.7749 18.4655V11.6212H91.9321V10.7952H92.2151C92.7566 10.7671 93.2806 10.5936 93.7318 10.2929C94.1831 9.99217 94.5449 9.57538 94.7793 9.08638C95.3532 8.21328 95.6744 7.19839 95.7073 6.15403H96.5724V10.7952H98.5403V11.6212H96.5724V18.8079C96.5724 19.6553 96.8332 20.0811 97.3567 20.0811C97.8175 20.0811 98.1153 19.6798 98.2502 18.8771C98.3117 18.3047 98.3357 17.7288 98.322 17.1532H99.2874C99.3545 18.1344 99.2245 19.1191 98.9049 20.0492C98.6634 20.5027 98.2903 20.8724 97.8348 21.11C97.3792 21.3475 96.8624 21.4416 96.3523 21.3801M12.9006 0.814586C9.78833 0.779719 6.78665 1.96753 4.54097 4.12261C2.29529 6.2777 0.984962 9.22796 0.89172 12.339C0.806556 14.5531 1.37328 16.7435 2.52159 18.6385C3.59693 15.7496 5.74585 10.0011 5.74585 10.0011C6.06466 9.82193 6.39977 9.67339 6.74666 9.55751L8.19021 5.88875L9.11827 5.40697L10.2717 2.95995L12.787 3.36808L17.9029 6.22147L23.6452 7.81851C22.7396 5.72456 21.2379 3.9434 19.3271 2.69701C17.4163 1.45061 15.181 0.794085 12.8997 0.809262M12.8252 25.4215C10.9599 25.448 9.1125 25.0551 7.41941 24.2719C5.72632 23.4887 4.2308 22.3352 3.04329 20.8965H22.5742C21.385 22.3247 19.8937 23.4713 18.2079 24.2536C16.522 25.0359 14.6836 25.4354 12.8252 25.4215ZM16.6847 20.3109H14.9005L18.2046 16.195L18.5364 16.8249L16.6847 20.3109ZM18.4273 7.22672L12.7569 3.9306L10.6798 3.55973V5.07869L12.2769 6.56306L10.0525 6.37496C10.0525 6.37496 10.1244 6.48764 11.9761 8.45112L20.4245 9.85918L21.9044 10.8227L18.0546 11.0082L16.4576 16.8258L11.2344 20.3109H7.82378L8.9772 18.0476L8.79087 17.973L5.71391 20.3118H4.97305L8.12189 15.8978C8.27095 14.6397 8.19553 15.1951 8.38185 12.9326L7.90008 12.2672L6.6393 17.1577L4.00773 20.3109H3.33963L4.89586 18.1221L7.08204 11.4163L6.52574 11.6736L5.56219 14.3424L4.89586 14.7115C4.89586 14.7115 3.33963 18.4921 2.52425 20.342C0.815716 18.0315 -0.0712309 15.2161 0.00447379 12.3435C0.109487 9.00717 1.51924 5.84524 3.93072 3.53728C6.3422 1.22933 9.56291 -0.0404087 12.9006 0.000981021C15.6183 -0.0115624 18.2665 0.859815 20.4457 2.48372C22.6249 4.10763 24.2171 6.39603 24.9822 9.00387L18.4246 7.22938L18.4273 7.22672ZM22.0969 15.8978L21.0189 16.8258L18.8691 20.3109H17.4584L18.8691 17.8213L19.9791 16.8995L21.5761 12.4153L23.2752 13.1189L22.0907 15.8969L22.0969 15.8978ZM23.0995 20.3118H20.2426L22.9451 16.0486L23.7605 13.268L25.4658 13.8615C25.3003 16.1922 24.4787 18.4284 23.0959 20.3118M19.6126 15.1951L18.76 15.3459L18.9862 13.638L18.76 13.3044L18.9862 11.3764L21.168 12.2636L19.6126 15.1951ZM99.9679 20.24H100.24C100.647 20.24 100.904 20.1078 101.008 19.8576C101.097 19.4097 101.129 18.9525 101.104 18.4965V13.11C101.104 12.3798 101.035 11.9513 100.884 11.8218C100.7 11.6805 100.471 11.612 100.239 11.6292H99.967V10.8032H103.901V18.4992C103.851 19.0001 103.905 19.5059 104.058 19.9853C104.154 20.0833 104.271 20.1576 104.4 20.2023C104.53 20.247 104.668 20.2608 104.803 20.2426H105.086V21.0713H99.9679V20.24ZM100.717 7.91433C100.713 7.69316 100.755 7.47358 100.84 7.26931C100.924 7.06504 101.051 6.88049 101.21 6.7272C101.365 6.56887 101.55 6.44371 101.755 6.35936C101.96 6.27501 102.179 6.23322 102.401 6.23655C102.623 6.23341 102.844 6.27525 103.049 6.35957C103.255 6.44389 103.441 6.56894 103.598 6.7272C103.759 6.87932 103.887 7.06345 103.974 7.26785C104.06 7.47225 104.103 7.69242 104.1 7.91433C104.103 8.13818 104.06 8.36028 103.974 8.56681C103.887 8.77334 103.759 8.95987 103.598 9.11478C103.444 9.27741 103.258 9.40635 103.052 9.49341C102.846 9.58047 102.624 9.62375 102.401 9.62051C102.178 9.62392 101.957 9.58069 101.752 9.4936C101.547 9.4065 101.362 9.27746 101.21 9.11478C101.051 8.9586 100.925 8.77163 100.84 8.56526C100.755 8.35889 100.713 8.13742 100.717 7.91433Z" fill="black"/>
</g>
<defs>
<clipPath id="clip0_160_233">
<rect width="121" height="25.4223" fill="white"/>
</clipPath>
</defs>
</svg>
