<svg width="121" height="30" viewBox="0 0 121 30" fill="none" xmlns="http://www.w3.org/2000/svg">
<path d="M13.3987 10.4286V9.39288C13.3987 9.11605 13.2887 8.85056 13.093 8.65481C12.8972 8.45906 12.6317 8.3491 12.3549 8.3491H10.3572V7.38931C10.354 6.26581 10.6076 5.59599 10.8355 5.3515L10.8462 5.33812C11.0017 5.18489 11.1971 5.07832 11.4101 5.0305C12.1474 4.91186 12.8932 4.85407 13.64 4.8577H14.0236C14.1607 4.85777 14.2965 4.83082 14.4232 4.7784C14.5499 4.72597 14.665 4.6491 14.762 4.55217C14.859 4.45524 14.9359 4.34015 14.9884 4.21348C15.0409 4.0868 15.0679 3.95103 15.0679 3.81391V2.87874C15.0684 2.63634 14.9844 2.40134 14.8303 2.21424C14.6762 2.02713 14.4617 1.89962 14.2237 1.85368C14.0974 1.82907 13.9562 1.80446 13.7994 1.78038C13.6025 1.74989 12.5684 1.73438 12.3651 1.73438H12.3506C10.6702 1.73438 9.23856 2.12706 8.27984 3.15533C7.34145 4.18895 7.00494 5.64789 7.00012 7.42141V26.9644C7.00012 27.2412 7.11009 27.5067 7.30584 27.7024C7.50159 27.8982 7.76708 28.0081 8.0439 28.0081H9.31346C9.45057 28.0083 9.58636 27.9814 9.71306 27.929C9.83976 27.8766 9.95488 27.7997 10.0518 27.7027C10.1488 27.6058 10.2257 27.4907 10.2781 27.364C10.3305 27.2373 10.3574 27.1015 10.3572 26.9644V11.4713H12.3539C12.491 11.4716 12.6268 11.4449 12.7535 11.3926C12.8803 11.3403 12.9955 11.2636 13.0925 11.1667C13.1896 11.0698 13.2666 10.9548 13.3191 10.8282C13.3717 10.7015 13.3987 10.5657 13.3987 10.4286Z" fill="black"/>
<path d="M103.018 27.6182C103.111 27.7192 103.224 27.8 103.349 27.8558C103.475 27.9115 103.61 27.941 103.748 27.9424H105.039C105.255 27.9424 105.466 27.8751 105.643 27.7497C105.819 27.6243 105.952 27.447 106.024 27.2426L113.942 4.52602C113.997 4.36871 114.013 4.20051 113.99 4.0355C113.966 3.87048 113.904 3.71345 113.808 3.57753C113.711 3.44161 113.584 3.33075 113.435 3.25423C113.287 3.17771 113.123 3.13775 112.957 3.1377H111.688C111.471 3.13739 111.259 3.20468 111.083 3.3302C110.906 3.45572 110.773 3.63323 110.702 3.83801L102.784 26.5546C102.743 26.6623 102.722 26.7765 102.722 26.8916C102.725 27.1624 102.831 27.4221 103.017 27.6182" fill="black"/>
<path d="M77.6794 27.941H78.9152C79.0524 27.9411 79.1881 27.9142 79.3148 27.8618C79.4416 27.8094 79.5567 27.7325 79.6536 27.6356C79.7506 27.5386 79.8275 27.4235 79.8799 27.2968C79.9323 27.1701 79.9592 27.0343 79.959 26.8972V16.2405C79.9643 15.6282 80.0657 15.0205 80.2597 14.4397V14.4397C80.4569 13.8282 80.7539 13.2535 81.1387 12.739C81.4933 12.2555 81.9437 11.8503 82.4618 11.5486C82.9698 11.2643 83.5452 11.1223 84.1272 11.1377C84.7624 11.0976 85.3935 11.2655 85.9248 11.616C86.3956 11.9784 86.7492 12.4716 86.9413 13.0338C87.2107 13.795 87.341 14.5986 87.326 15.4059V26.8972C87.326 27.174 87.4359 27.4395 87.6317 27.6352C87.8274 27.831 88.0929 27.941 88.3697 27.941H89.6056C89.7427 27.941 89.8784 27.9141 90.005 27.8616C90.1317 27.8092 90.2467 27.7323 90.3436 27.6354C90.4405 27.5384 90.5173 27.4233 90.5697 27.2967C90.6221 27.17 90.649 27.0342 90.6488 26.8972V16.2405C90.6542 15.6283 90.7555 15.0206 90.949 14.4397V14.4397C91.1457 13.828 91.4426 13.2531 91.8274 12.7384C92.1823 12.2551 92.6329 11.8499 93.151 11.5481C93.6591 11.2638 94.2345 11.1219 94.8165 11.1372C95.4516 11.097 96.0824 11.2649 96.6135 11.6155C97.0846 11.9774 97.4383 12.4704 97.63 13.0327C97.8994 13.7942 98.0297 14.5979 98.0147 15.4054V26.8972C98.0147 27.174 98.1247 27.4395 98.3204 27.6352C98.5162 27.831 98.7816 27.941 99.0585 27.941H100.294C100.431 27.9411 100.567 27.9142 100.694 27.8618C100.821 27.8094 100.936 27.7325 101.033 27.6356C101.13 27.5386 101.207 27.4235 101.259 27.2968C101.311 27.1701 101.338 27.0343 101.338 26.8972V15.1042C101.369 13.8369 101.141 12.5766 100.668 11.4004C100.229 10.3466 99.476 9.45337 98.5117 8.84205C97.4801 8.22594 96.2947 7.91572 95.0936 7.94754H95.0727C93.7921 7.93636 92.5352 8.29407 91.4524 8.97794C90.7392 9.43719 90.1171 10.0243 89.6174 10.7097C89.1837 9.95613 88.5761 9.31707 87.8454 8.8458C86.8304 8.22841 85.6589 7.91655 84.4712 7.94754H84.4471C83.1781 7.94023 81.9338 8.29811 80.8626 8.97848C80.5413 9.1872 80.2392 9.42426 79.9601 9.68682V9.31232C79.9567 9.04013 79.8473 8.78 79.6552 8.58712C79.4631 8.39425 79.2035 8.28381 78.9313 8.27924H77.6794C77.4026 8.27924 77.1371 8.3892 76.9413 8.58495C76.7456 8.7807 76.6356 9.04619 76.6356 9.32302V26.8972C76.6356 27.174 76.7456 27.4395 76.9413 27.6352C77.1371 27.831 77.4026 27.941 77.6794 27.941" fill="black"/>
<path d="M61.2067 27.0143C62.6095 27.859 64.2243 28.2859 65.8612 28.2448H65.881C67.4867 28.2802 69.0706 27.869 70.4563 27.0571C71.8052 26.2178 72.8633 24.984 73.4871 23.5229C74.1949 21.819 74.5411 19.9866 74.5036 18.1419C74.5395 16.313 74.2015 14.4961 73.5101 12.8026C72.8981 11.3335 71.8607 10.0811 70.5312 9.20634C69.1364 8.34734 67.5218 7.91257 65.8842 7.95498H65.8628C64.2493 7.92099 62.6583 8.33847 61.2693 9.16033C59.919 9.9998 58.8606 11.2355 58.2386 12.6988C57.5304 14.4251 57.1915 16.2805 57.2435 18.1456C57.2042 19.9512 57.5344 21.7458 58.214 23.4191C58.8166 24.8977 59.862 26.1535 61.2067 27.0143M62.0092 12.8144C62.4298 12.274 62.9765 11.8451 63.6014 11.5651C64.3193 11.2682 65.0908 11.1225 65.8677 11.1372C66.6261 11.1228 67.3788 11.2706 68.0756 11.5705C68.7031 11.8641 69.2507 12.3045 69.672 12.8545C70.5842 14.0224 71.1026 15.736 71.1037 18.1076V18.1109C71.1037 20.5547 70.5858 22.2903 69.7063 23.4106C69.2909 23.9495 68.7487 24.3773 68.128 24.656C67.4123 24.953 66.6429 25.0987 65.8682 25.084C65.1389 25.1271 64.4099 24.9928 63.7439 24.6925C63.0779 24.3922 62.4946 23.9349 62.044 23.3597C61.1206 22.1886 60.5995 20.49 60.5995 18.1435V18.1403C60.5995 15.6755 61.1228 13.9314 62.0109 12.8138" fill="black"/>
<path d="M39.5046 2.84456V26.897C39.5044 27.0341 39.5313 27.1699 39.5837 27.2966C39.6361 27.4233 39.713 27.5385 39.81 27.6354C39.9069 27.7324 40.022 27.8092 40.1487 27.8616C40.2754 27.914 40.4112 27.9409 40.5483 27.9408H41.8002C42.0712 27.9359 42.3297 27.8261 42.5215 27.6345C42.7132 27.443 42.8233 27.1846 42.8285 26.9136V16.2404C42.8347 15.6352 42.9446 15.0355 43.1532 14.4674V14.4674C43.3724 13.8522 43.6972 13.2799 44.113 12.7763C44.5213 12.2763 45.029 11.8668 45.6041 11.5736C46.2128 11.2719 46.8856 11.1224 47.5648 11.1381C48.3282 11.0961 49.0874 11.2754 49.7514 11.6544C50.2756 11.9937 50.6809 12.4882 50.9107 13.0689C51.2047 13.8124 51.3476 14.607 51.3312 15.4063V26.8981C51.3312 27.1749 51.4412 27.4404 51.6369 27.6362C51.8327 27.8319 52.0982 27.9419 52.375 27.9419H53.659C53.9303 27.9372 54.1892 27.8274 54.3811 27.6356C54.573 27.4437 54.683 27.1849 54.6878 26.9136V15.1046C54.7214 13.8106 54.456 12.5262 53.9121 11.3516C53.3996 10.2919 52.5806 9.4107 51.5613 8.8221C50.4407 8.21201 49.1783 7.90999 47.903 7.94684H47.8874C46.5348 7.93373 45.2043 8.29059 44.0397 8.97885C43.6058 9.2369 43.1999 9.53938 42.8285 9.8814V2.84456C42.8285 2.70745 42.8015 2.57167 42.749 2.445C42.6965 2.31833 42.6196 2.20324 42.5226 2.10631C42.4256 2.00938 42.3105 1.9325 42.1838 1.88008C42.0571 1.82766 41.9213 1.80071 41.7842 1.80078H40.5318C40.2601 1.80559 40.0008 1.91562 39.8086 2.10771C39.6165 2.2998 39.5063 2.55897 39.5013 2.83065L39.5046 2.84456Z" fill="black"/>
<path d="M30.8859 5.25081V22.3863C30.8891 24.1411 31.2315 25.5963 32.1586 26.6283C33.1216 27.6737 34.5661 28.0728 36.2685 28.0728C36.4686 28.0728 36.6647 28.0665 36.857 28.054C37.1076 28.0408 37.3547 27.9888 37.5894 27.9C37.7837 27.8236 37.9507 27.6907 38.0688 27.5185C38.1869 27.3462 38.2506 27.1426 38.2517 26.9338V25.9964C38.2513 25.7199 38.1411 25.4548 37.9454 25.2594C37.7497 25.064 37.4845 24.9543 37.2079 24.9543H36.7179C36.2392 24.9651 35.7615 24.9066 35.2996 24.7804C35.0862 24.7334 34.8902 24.6278 34.7336 24.4754L34.7218 24.461C34.4928 24.216 34.2403 23.544 34.2403 22.4227V11.4054H36.4194C36.6906 11.4006 36.9493 11.2907 37.1411 11.0989C37.3329 10.9071 37.4428 10.6484 37.4476 10.3772V9.32643C37.4476 9.0496 37.3376 8.78411 37.1419 8.58837C36.9462 8.39262 36.6807 8.28265 36.4038 8.28265H34.243V5.25081C34.243 4.97398 34.133 4.70849 33.9373 4.51275C33.7415 4.317 33.476 4.20703 33.1992 4.20703H31.9152C31.6436 4.21184 31.3845 4.32191 31.1925 4.51403C31.0005 4.70615 30.8905 4.96532 30.8859 5.2369V5.25081Z" fill="black"/>
<path d="M13.0639 22.3216V22.3339C13.0401 23.4635 13.3487 24.5753 13.9514 25.531C14.5552 26.4477 15.4183 27.1638 16.4306 27.5881C17.5584 28.0479 18.7687 28.2707 19.9862 28.2424C20.923 28.2314 21.8507 28.058 22.7281 27.7299C23.7149 27.3668 24.6279 26.8281 25.4229 26.1398C25.5796 26.0061 25.7273 25.8632 25.8712 25.7167C25.9642 26.3257 26.1707 26.9119 26.48 27.4447C26.573 27.5972 26.7037 27.7231 26.8596 27.8101C27.0155 27.8972 27.1912 27.9425 27.3697 27.9417V27.9417L27.9807 27.9348C28.2555 27.9317 28.518 27.8203 28.7112 27.6249C28.9044 27.4295 29.0127 27.1658 29.0127 26.891V15.7095C29.043 14.3382 28.7848 12.9759 28.2546 11.7109C27.746 10.5395 26.8782 9.56003 25.7765 8.91396C24.5358 8.23491 23.1353 7.90228 21.7218 7.95096C20.3285 7.91596 18.9453 8.19691 17.6761 8.77272C16.5383 9.30966 15.5809 10.1656 14.9203 11.2364L14.9155 11.2439C14.8271 11.3866 14.7802 11.5511 14.7802 11.719C14.7814 11.9162 14.8438 12.1083 14.9588 12.2686C15.0738 12.4289 15.2357 12.5496 15.4222 12.614V12.614L16.4467 12.9783C16.6026 13.0338 16.7669 13.062 16.9325 13.0618C17.1503 13.0614 17.3654 13.0125 17.562 12.9186C17.7586 12.8248 17.9319 12.6884 18.0693 12.5193C18.1661 12.4008 18.2694 12.2878 18.3786 12.1807C19.0489 11.5301 20.0435 11.1465 21.5886 11.1406C22.2546 11.1248 22.9181 11.2283 23.5477 11.4461C23.9988 11.6085 24.3979 11.8892 24.7033 12.2588C25.2832 12.9703 25.6481 14.0703 25.6824 15.6464C24.1908 15.6699 22.8677 15.732 21.7234 15.839C20.2865 15.9672 18.8693 16.2621 17.5006 16.718V16.718H17.4958L17.4835 16.7217C16.2315 17.0632 15.1054 17.7602 14.2414 18.7285C13.4369 19.7412 13.0196 21.0075 13.0644 22.3002L13.0639 22.3216ZM24.9302 22.1477C24.4292 23.0214 23.7213 23.7589 22.8688 24.2952C22.038 24.8235 21.0712 25.0981 20.0868 25.0854C19.0923 25.1559 18.1046 24.8742 17.2968 24.2898C17.0165 24.0626 16.793 23.7732 16.6441 23.4445C16.4897 23.0666 16.4138 22.6612 16.421 22.2531C16.4135 21.7732 16.5337 21.3 16.7693 20.8819C17.0839 20.4188 17.5303 20.0607 18.0506 19.8541C19.0848 19.4198 20.1759 19.1357 21.2906 19.0104C22.7501 18.8183 24.2199 18.715 25.692 18.7012V19.347C25.6954 20.3319 25.4324 21.2995 24.9307 22.1471" fill="black"/>
</svg>
